<svg width="25" height="24" viewBox="0 0 25 24" fill="none" xmlns="http://www.w3.org/2000/svg">
<path d="M23.333 15C23.333 15.2761 23.5569 15.5 23.833 15.5C24.1092 15.5 24.333 15.2761 24.333 15H23.333ZM23.833 7H23.333V15H23.833H24.333V7H23.833Z" fill="#CFCFCF"/>
<path d="M12.2227 15.5411C12.5041 15.6818 12.8357 15.6818 13.1172 15.5411L20.145 12.0276C20.3113 11.9445 20.5068 12.0654 20.5068 12.2513V17.3321C20.5067 17.374 20.4717 22.0343 12.6699 22.0343C4.86826 22.0341 4.83316 17.3738 4.83301 17.3321V12.2503C4.83301 12.0645 5.0286 11.9436 5.19482 12.0267L12.2227 15.5411Z" fill="#CFCFCF"/>
<path d="M0.939088 6.705L12.2836 1.25962C12.4204 1.19397 12.5796 1.19397 12.7164 1.25962L24.0609 6.705C24.4391 6.88653 24.4391 7.425 24.0609 7.60652L12.7164 13.0519C12.5796 13.1176 12.4204 13.1176 12.2836 13.0519L0.939086 7.60652C0.560907 7.425 0.560908 6.88653 0.939088 6.705Z" fill="#CFCFCF"/>
</svg>
