<svg width="24" height="24" viewBox="0 0 24 24" fill="none" xmlns="http://www.w3.org/2000/svg">
<path d="M22.6775 15.7896V7.78955H23.6775V15.7896C23.6775 16.0657 23.4536 16.2896 23.1775 16.2896C22.9013 16.2896 22.6775 16.0657 22.6775 15.7896Z" fill="#FF5C00"/>
<path d="M11.5671 16.3307C11.8486 16.4714 12.1802 16.4713 12.4617 16.3307L19.4895 12.8172C19.6558 12.7341 19.8513 12.855 19.8513 13.0408V18.1217C19.8512 18.1635 19.8162 22.8238 12.0144 22.8238C4.21274 22.8237 4.17765 18.1634 4.17749 18.1217V13.0399C4.17749 12.854 4.37308 12.7331 4.53931 12.8163L11.5671 16.3307Z" fill="#FF5C00"/>
<path d="M0.283635 7.49462L11.6282 2.04924C11.765 1.98359 11.9241 1.98359 12.0609 2.04924L23.4055 7.49462C23.7836 7.67615 23.7836 8.21462 23.4055 8.39614L12.0609 13.8415C11.9241 13.9072 11.765 13.9072 11.6282 13.8415L0.283634 8.39614C-0.0945453 8.21462 -0.0945443 7.67615 0.283635 7.49462Z" fill="#FF5C00"/>
</svg>
