<svg width="25" height="24" viewBox="0 0 25 24" fill="none" xmlns="http://www.w3.org/2000/svg">
<mask id="mask0_5301_31042" style="mask-type:alpha" maskUnits="userSpaceOnUse" x="0" y="0" width="25" height="24">
<rect x="0.0661621" width="24" height="24" fill="#FF5C00"/>
</mask>
<g mask="url(#mask0_5301_31042)">
<path d="M10.6662 13.8L8.51616 11.65C8.33283 11.4667 8.0995 11.375 7.81616 11.375C7.53283 11.375 7.2995 11.4667 7.11616 11.65C6.93283 11.8333 6.84116 12.0667 6.84116 12.35C6.84116 12.6333 6.93283 12.8667 7.11616 13.05L9.96616 15.9C10.1662 16.1 10.3995 16.2 10.6662 16.2C10.9328 16.2 11.1662 16.1 11.3662 15.9L17.0162 10.25C17.1995 10.0667 17.2912 9.83333 17.2912 9.55C17.2912 9.26667 17.1995 9.03333 17.0162 8.85C16.8328 8.66667 16.5995 8.575 16.3162 8.575C16.0328 8.575 15.7995 8.66667 15.6162 8.85L10.6662 13.8ZM12.0662 22C10.6828 22 9.38283 21.7375 8.16616 21.2125C6.9495 20.6875 5.89116 19.975 4.99116 19.075C4.09116 18.175 3.37866 17.1167 2.85366 15.9C2.32866 14.6833 2.06616 13.3833 2.06616 12C2.06616 10.6167 2.32866 9.31667 2.85366 8.1C3.37866 6.88333 4.09116 5.825 4.99116 4.925C5.89116 4.025 6.9495 3.3125 8.16616 2.7875C9.38283 2.2625 10.6828 2 12.0662 2C13.4495 2 14.7495 2.2625 15.9662 2.7875C17.1828 3.3125 18.2412 4.025 19.1412 4.925C20.0412 5.825 20.7537 6.88333 21.2787 8.1C21.8037 9.31667 22.0662 10.6167 22.0662 12C22.0662 13.3833 21.8037 14.6833 21.2787 15.9C20.7537 17.1167 20.0412 18.175 19.1412 19.075C18.2412 19.975 17.1828 20.6875 15.9662 21.2125C14.7495 21.7375 13.4495 22 12.0662 22Z" fill="#FF5C00"/>
</g>
</svg>
