<svg width="25" height="24" viewBox="0 0 25 24" fill="none" xmlns="http://www.w3.org/2000/svg">
<mask id="mask0_2626_17853" style="mask-type:alpha" maskUnits="userSpaceOnUse" x="0" y="0" width="25" height="24">
<rect x="0.495117" width="24" height="24" fill="#FF6E1C"/>
</mask>
<g mask="url(#mask0_2626_17853)">
<path d="M11.0951 16.6L18.1451 9.55L16.7451 8.15L11.0951 13.8L8.24512 10.95L6.84512 12.35L11.0951 16.6ZM12.4951 22C11.1118 22 9.81178 21.7375 8.59512 21.2125C7.37845 20.6875 6.32012 19.975 5.42012 19.075C4.52012 18.175 3.80762 17.1167 3.28262 15.9C2.75762 14.6833 2.49512 13.3833 2.49512 12C2.49512 10.6167 2.75762 9.31667 3.28262 8.1C3.80762 6.88333 4.52012 5.825 5.42012 4.925C6.32012 4.025 7.37845 3.3125 8.59512 2.7875C9.81178 2.2625 11.1118 2 12.4951 2C13.8785 2 15.1785 2.2625 16.3951 2.7875C17.6118 3.3125 18.6701 4.025 19.5701 4.925C20.4701 5.825 21.1826 6.88333 21.7076 8.1C22.2326 9.31667 22.4951 10.6167 22.4951 12C22.4951 13.3833 22.2326 14.6833 21.7076 15.9C21.1826 17.1167 20.4701 18.175 19.5701 19.075C18.6701 19.975 17.6118 20.6875 16.3951 21.2125C15.1785 21.7375 13.8785 22 12.4951 22Z" fill="#FF5C00"/>
</g>
</svg>
