<svg width="25" height="24" viewBox="0 0 25 24" fill="none" xmlns="http://www.w3.org/2000/svg">
<mask id="mask0_4096_21274" style="mask-type:alpha" maskUnits="userSpaceOnUse" x="0" y="0" width="25" height="24">
<rect x="0.495117" width="24" height="24" fill="#D9D9D9"/>
</mask>
<g mask="url(#mask0_4096_21274)">
<path d="M11.0951 13.4L8.94512 11.25C8.76178 11.0667 8.52845 10.975 8.24512 10.975C7.96178 10.975 7.72845 11.0667 7.54512 11.25C7.36178 11.4333 7.27012 11.6667 7.27012 11.95C7.27012 12.2333 7.36178 12.4667 7.54512 12.65L10.3951 15.5C10.5951 15.7 10.8285 15.8 11.0951 15.8C11.3618 15.8 11.5951 15.7 11.7951 15.5L17.4451 9.85C17.6285 9.66667 17.7201 9.43333 17.7201 9.15C17.7201 8.86667 17.6285 8.63333 17.4451 8.45C17.2618 8.26667 17.0285 8.175 16.7451 8.175C16.4618 8.175 16.2285 8.26667 16.0451 8.45L11.0951 13.4ZM5.49512 21C4.94512 21 4.47428 20.8042 4.08262 20.4125C3.69095 20.0208 3.49512 19.55 3.49512 19V5C3.49512 4.45 3.69095 3.97917 4.08262 3.5875C4.47428 3.19583 4.94512 3 5.49512 3H19.4951C20.0451 3 20.516 3.19583 20.9076 3.5875C21.2993 3.97917 21.4951 4.45 21.4951 5V19C21.4951 19.55 21.2993 20.0208 20.9076 20.4125C20.516 20.8042 20.0451 21 19.4951 21H5.49512Z" fill="#FF5C00"/>
</g>
</svg>
