<svg width="25" height="24" viewBox="0 0 25 24" fill="none" xmlns="http://www.w3.org/2000/svg">
<mask id="mask0_5301_31039" style="mask-type:alpha" maskUnits="userSpaceOnUse" x="0" y="0" width="25" height="24">
<rect x="0.495117" width="24" height="24" fill="#FF5C00"/>
</mask>
<g mask="url(#mask0_5301_31039)">
<path d="M10.0451 15.15L18.5201 6.675C18.7201 6.475 18.9534 6.375 19.2201 6.375C19.4867 6.375 19.7201 6.475 19.9201 6.675C20.1201 6.875 20.2201 7.1125 20.2201 7.3875C20.2201 7.6625 20.1201 7.9 19.9201 8.1L10.7451 17.3C10.5451 17.5 10.3117 17.6 10.0451 17.6C9.77841 17.6 9.54508 17.5 9.34508 17.3L5.04508 13C4.84508 12.8 4.74925 12.5625 4.75758 12.2875C4.76591 12.0125 4.87008 11.775 5.07008 11.575C5.27008 11.375 5.50758 11.275 5.78258 11.275C6.05758 11.275 6.29508 11.375 6.49508 11.575L10.0451 15.15Z" fill="#FF5C00"/>
</g>
</svg>
