<svg width="24" height="24" viewBox="0 0 24 24" fill="none" xmlns="http://www.w3.org/2000/svg">
<mask id="mask0_3862_14409" style="mask-type:alpha" maskUnits="userSpaceOnUse" x="0" y="0" width="24" height="24">
<rect y="24" width="24" height="24" transform="rotate(-90 0 24)" fill="#D9D9D9"/>
</mask>
<g mask="url(#mask0_3862_14409)">
<path d="M15.975 12.0002C15.975 12.1335 15.9542 12.2585 15.9125 12.3752C15.8708 12.4919 15.8 12.6002 15.7 12.7002L11.1 17.3002C10.9167 17.4835 10.6833 17.5752 10.4 17.5752C10.1167 17.5752 9.88332 17.4835 9.69999 17.3002C9.51665 17.1169 9.42499 16.8835 9.42499 16.6002C9.42499 16.3169 9.51665 16.0835 9.69999 15.9002L13.6 12.0002L9.69999 8.10019C9.51665 7.91686 9.42499 7.68353 9.42499 7.4002C9.42499 7.11686 9.51665 6.88353 9.69999 6.7002C9.88332 6.51686 10.1167 6.42519 10.4 6.42519C10.6833 6.42519 10.9167 6.51686 11.1 6.7002L15.7 11.3002C15.8 11.4002 15.8708 11.5085 15.9125 11.6252C15.9542 11.7419 15.975 11.8669 15.975 12.0002Z" fill="#1D1D1F"/>
</g>
</svg>
