<svg width="27" height="26" viewBox="0 0 27 26" fill="none" xmlns="http://www.w3.org/2000/svg">
<rect x="1.48633" y="1.11719" width="24.3828" height="24.3828" rx="12.1914" fill="white"/>
<rect x="1.48633" y="1.11719" width="24.3828" height="24.3828" rx="12.1914" stroke="#E9E9E9"/>
<mask id="mask0_7362_6380" style="mask-type:alpha" maskUnits="userSpaceOnUse" x="1" y="1" width="25" height="25">
<rect x="1.67773" y="1.30859" width="24" height="24" fill="#D9D9D9"/>
</mask>
<g mask="url(#mask0_7362_6380)">
<path d="M13.6781 19.2891C13.4707 19.2891 13.2956 19.2177 13.1529 19.0751C13.0103 18.9324 12.9389 18.7573 12.9389 18.5499V14.0518H8.43691C8.22951 14.0518 8.05444 13.9805 7.9117 13.8378C7.76907 13.6951 7.69775 13.52 7.69775 13.3126C7.69775 13.1052 7.76907 12.9301 7.9117 12.7874C8.05444 12.6448 8.22951 12.5735 8.43691 12.5735H12.935V8.06753C12.935 7.86013 13.0064 7.68506 13.149 7.54232C13.2917 7.39969 13.4668 7.32837 13.6742 7.32837C13.8816 7.32837 14.0567 7.39969 14.1994 7.54232C14.342 7.68506 14.4134 7.86013 14.4134 8.06753V12.5696H18.9193C19.1267 12.5696 19.3018 12.6409 19.4445 12.7835C19.5871 12.9262 19.6584 13.1013 19.6584 13.3087C19.6584 13.5161 19.5871 13.6912 19.4445 13.8339C19.3018 13.9766 19.1267 14.0479 18.9193 14.0479H14.4173V18.5499C14.4173 18.7573 14.3459 18.9324 14.2033 19.0751C14.0606 19.2177 13.8855 19.2891 13.6781 19.2891Z" fill="#1D1D1F"/>
</g>
</svg>
