<svg width="25" height="24" viewBox="0 0 25 24" fill="none" xmlns="http://www.w3.org/2000/svg">
<path d="M2.8999 20.5123C2.8999 16.7368 6.05419 13.6761 12.4999 13.6761C18.9456 13.6761 22.0999 16.7368 22.0999 20.5123C22.0999 21.113 21.6617 21.5999 21.1211 21.5999H3.87873C3.33814 21.5999 2.8999 21.113 2.8999 20.5123Z" fill="#CFCFCF"/>
<path d="M16.0999 5.9999C16.0999 7.98813 14.4881 9.5999 12.4999 9.5999C10.5117 9.5999 8.8999 7.98813 8.8999 5.9999C8.8999 4.01168 10.5117 2.3999 12.4999 2.3999C14.4881 2.3999 16.0999 4.01168 16.0999 5.9999Z" fill="#CFCFCF"/>
<path d="M2.8999 20.5123C2.8999 16.7368 6.05419 13.6761 12.4999 13.6761C18.9456 13.6761 22.0999 16.7368 22.0999 20.5123C22.0999 21.113 21.6617 21.5999 21.1211 21.5999H3.87873C3.33814 21.5999 2.8999 21.113 2.8999 20.5123Z" stroke="#CFCFCF" stroke-width="2"/>
<path d="M16.0999 5.9999C16.0999 7.98813 14.4881 9.5999 12.4999 9.5999C10.5117 9.5999 8.8999 7.98813 8.8999 5.9999C8.8999 4.01168 10.5117 2.3999 12.4999 2.3999C14.4881 2.3999 16.0999 4.01168 16.0999 5.9999Z" stroke="#CFCFCF" stroke-width="2"/>
</svg>
