<svg width="24" height="25" viewBox="0 0 24 25" fill="none" xmlns="http://www.w3.org/2000/svg">
<mask id="mask0_3481_9608" style="mask-type:alpha" maskUnits="userSpaceOnUse" x="0" y="0" width="24" height="25">
<rect y="0.5" width="24" height="24" fill="#D9D9D9"/>
</mask>
<g mask="url(#mask0_3481_9608)">
<path d="M12 18.5L7.8 20.3C7.13333 20.5833 6.5 20.5292 5.9 20.1375C5.3 19.7458 5 19.1917 5 18.475V5.5C5 4.95 5.19583 4.47917 5.5875 4.0875C5.97917 3.69583 6.45 3.5 7 3.5H17C17.55 3.5 18.0208 3.69583 18.4125 4.0875C18.8042 4.47917 19 4.95 19 5.5V18.475C19 19.1917 18.7 19.7458 18.1 20.1375C17.5 20.5292 16.8667 20.5833 16.2 20.3L12 18.5Z" fill="#FF5C00"/>
</g>
</svg>
