<svg width="25" height="24" viewBox="0 0 25 24" fill="none" xmlns="http://www.w3.org/2000/svg">
<mask id="mask0_5301_31043" style="mask-type:alpha" maskUnits="userSpaceOnUse" x="0" y="0" width="25" height="24">
<rect x="0.637207" width="24" height="24" fill="#D9D9D9"/>
</mask>
<g mask="url(#mask0_5301_31043)">
<path d="M11.2372 13.4L9.08721 11.25C8.90387 11.0667 8.67054 10.975 8.38721 10.975C8.10387 10.975 7.87054 11.0667 7.68721 11.25C7.50387 11.4333 7.41221 11.6667 7.41221 11.95C7.41221 12.2333 7.50387 12.4667 7.68721 12.65L10.5372 15.5C10.7372 15.7 10.9705 15.8 11.2372 15.8C11.5039 15.8 11.7372 15.7 11.9372 15.5L17.5872 9.85C17.7705 9.66667 17.8622 9.43333 17.8622 9.15C17.8622 8.86667 17.7705 8.63333 17.5872 8.45C17.4039 8.26667 17.1705 8.175 16.8872 8.175C16.6039 8.175 16.3705 8.26667 16.1872 8.45L11.2372 13.4ZM5.63721 21C5.08721 21 4.61637 20.8042 4.22471 20.4125C3.83304 20.0208 3.63721 19.55 3.63721 19V5C3.63721 4.45 3.83304 3.97917 4.22471 3.5875C4.61637 3.19583 5.08721 3 5.63721 3H19.6372C20.1872 3 20.658 3.19583 21.0497 3.5875C21.4414 3.97917 21.6372 4.45 21.6372 5V19C21.6372 19.55 21.4414 20.0208 21.0497 20.4125C20.658 20.8042 20.1872 21 19.6372 21H5.63721Z" fill="#FF5C00"/>
</g>
</svg>
