<svg width="48" height="48" viewBox="0 0 48 48" fill="none" xmlns="http://www.w3.org/2000/svg">
<rect width="48" height="48" rx="24" fill="#FF5C00"/>
<mask id="mask0_3862_16945" style="mask-type:alpha" maskUnits="userSpaceOnUse" x="12" y="12" width="24" height="24">
<rect x="12" y="12" width="24" height="24" fill="#D9D9D9"/>
</mask>
<g mask="url(#mask0_3862_16945)">
<path d="M24 33.2034C23.6808 33.2034 23.4114 33.0936 23.1918 32.8741C22.9723 32.6545 22.8625 32.385 22.8625 32.0659V25.1436H15.9343C15.6151 25.1436 15.3457 25.0339 15.126 24.8144C14.9065 24.5947 14.7968 24.3253 14.7968 24.0061C14.7968 23.687 14.9065 23.4175 15.126 23.1979C15.3457 22.9784 15.6151 22.8686 15.9343 22.8686H22.8565V15.9344C22.8565 15.6152 22.9663 15.3458 23.1858 15.1261C23.4054 14.9066 23.6748 14.7969 23.994 14.7969C24.3132 14.7969 24.5826 14.9066 24.8023 15.1261C25.0218 15.3458 25.1315 15.6152 25.1315 15.9344V22.8626H32.0658C32.3849 22.8626 32.6543 22.9724 32.874 23.1919C33.0935 23.4115 33.2033 23.681 33.2033 24.0001C33.2033 24.3193 33.0935 24.5887 32.874 24.8084C32.6543 25.0279 32.3849 25.1376 32.0658 25.1376H25.1375V32.0659C25.1375 32.385 25.0278 32.6545 24.8083 32.8741C24.5886 33.0936 24.3192 33.2034 24 33.2034Z" fill="white"/>
</g>
</svg>
