<svg width="73" height="73" viewBox="0 0 73 73" fill="none" xmlns="http://www.w3.org/2000/svg">
<g filter="url(#filter0_dddddd_915_9933)">
<path d="M36.5 52.0273C43.5142 47.7123 48.2278 39.6472 48.2278 30.41C48.2278 21.4471 43.8636 13.5877 37.122 9.18694C36.7402 8.93769 36.2598 8.93769 35.878 9.18694C29.1364 13.5877 24.7722 21.4471 24.7722 30.41C24.7722 39.6472 29.4858 47.7123 36.5 52.0273Z" fill="white"/>
<path d="M39.0222 47.508C38.439 40.5077 34.8872 33.0344 28.4614 29.8495C22.2265 26.7592 14.8211 28.4673 9.43531 32.2483C9.13027 32.4625 8.96463 32.84 9.00637 33.2261C9.74331 40.0417 13.2724 47.1694 19.5073 50.2597C25.9331 53.4446 33.6021 51.5329 39.0222 47.508Z" fill="white"/>
<path d="M41.9748 38.2263C43.6793 45.0165 42.7464 53.3303 37.733 58.6591C32.8685 63.8297 25.36 64.9167 19.0824 63.3217C18.7269 63.2314 18.4497 62.9368 18.3647 62.5589C16.8641 55.8863 17.8868 47.9055 22.7514 42.7349C27.7648 37.4061 35.5865 36.4146 41.9748 38.2263Z" fill="white"/>
<path d="M31.0252 38.2263C29.3207 45.0165 30.2536 53.3303 35.267 58.6591C40.1315 63.8297 47.64 64.9167 53.9176 63.3217C54.2731 63.2314 54.5503 62.9368 54.6353 62.5589C56.1359 55.8863 55.1132 47.9055 50.2486 42.7349C45.2352 37.4061 37.4135 36.4146 31.0252 38.2263Z" fill="white"/>
<path d="M33.9778 47.508C34.561 40.5077 38.1128 33.0344 44.5386 29.8495C50.7735 26.7592 58.1789 28.4673 63.5647 32.2483C63.8697 32.4625 64.0354 32.84 63.9936 33.2261C63.2567 40.0417 59.7276 47.1694 53.4927 50.2597C47.0669 53.4446 39.3979 51.5329 33.9778 47.508Z" fill="white"/>
</g>
<path d="M36.4983 51.2126C43.005 47.2098 47.3774 39.7283 47.3774 31.1595C47.3774 22.8452 43.329 15.5546 37.0753 11.4722C36.7211 11.241 36.2755 11.241 35.9213 11.4722C29.6675 15.5546 25.6192 22.8452 25.6192 31.1595C25.6192 39.7283 29.9916 47.2098 36.4983 51.2126Z" fill="#FF5C00"/>
<path d="M38.838 47.0203C38.297 40.5265 35.0022 33.5941 29.0414 30.6396C23.2577 27.773 16.3881 29.3575 11.3921 32.8648C11.1091 33.0635 10.9555 33.4137 10.9942 33.7718C11.6778 40.0943 14.9515 46.7062 20.7353 49.5729C26.6961 52.5273 33.8101 50.7539 38.838 47.0203Z" fill="#FF5C00"/>
<path d="M41.5769 38.4102C43.1581 44.7091 42.2927 52.4212 37.6421 57.3644C33.1296 62.1609 26.1644 63.1693 20.3411 61.6897C20.0113 61.6059 19.7542 61.3326 19.6754 60.982C18.2833 54.7923 19.232 47.389 23.7446 42.5926C28.3952 37.6494 35.6509 36.7296 41.5769 38.4102Z" fill="#FF5C00"/>
<path d="M31.4197 38.4102C29.8385 44.7091 30.7039 52.4212 35.3545 57.3644C39.867 62.1609 46.8321 63.1693 52.6555 61.6897C52.9853 61.6059 53.2424 61.3326 53.3212 60.982C54.7133 54.7923 53.7646 47.389 49.252 42.5926C44.6014 37.6494 37.3457 36.7296 31.4197 38.4102Z" fill="#FF5C00"/>
<path d="M34.1586 47.0203C34.6996 40.5265 37.9944 33.5941 43.9552 30.6396C49.7389 27.773 56.6085 29.3575 61.6045 32.8648C61.8875 33.0635 62.0411 33.4137 62.0024 33.7718C61.3188 40.0943 58.0451 46.7062 52.2613 49.5729C46.3005 52.5273 39.1865 50.7539 34.1586 47.0203Z" fill="#FF5C00"/>
<path d="M37.0753 11.4722C42.9032 15.2766 46.8159 21.8672 47.3217 29.4761C47.3228 29.4759 47.324 29.4756 47.3252 29.4754L47.3216 29.478L43.7345 34.3801C43.3963 29.293 40.7805 24.8867 36.8841 22.3432C36.6473 22.1886 36.3493 22.1886 36.1125 22.3432C32.2161 24.8867 29.6002 29.293 29.262 34.3801C25.9591 33.6864 22.4236 34.7428 19.713 36.6457C19.5238 36.7785 19.4211 37.0127 19.447 37.2521C19.8846 41.2996 21.91 45.5246 25.4762 47.5588C24.6978 50.1036 24.6843 52.9242 25.251 55.444C25.2747 55.5494 25.3224 55.6444 25.3879 55.722L19.9233 61.4454C19.8032 61.3214 19.7159 61.1619 19.6754 60.982C18.8278 57.2131 18.848 52.9942 20.0122 49.1878C14.6782 46.1453 11.6488 39.8259 10.9942 33.7718C10.9555 33.4137 11.1091 33.0635 11.3921 32.8648C15.4464 30.0186 20.7345 28.4386 25.6749 29.4761C26.1807 21.8672 30.0934 15.2766 35.9213 11.4722C36.2754 11.241 36.7212 11.241 37.0753 11.4722Z" fill="#EE500C"/>
<defs>
<filter id="filter0_dddddd_915_9933" x="0.24749" y="0.24749" width="72.505" height="72.505" filterUnits="userSpaceOnUse" color-interpolation-filters="sRGB">
<feFlood flood-opacity="0" result="BackgroundImageFix"/>
<feColorMatrix in="SourceAlpha" type="matrix" values="0 0 0 0 0 0 0 0 0 0 0 0 0 0 0 0 0 0 127 0" result="hardAlpha"/>
<feOffset/>
<feGaussianBlur stdDeviation="0.104197"/>
<feColorMatrix type="matrix" values="0 0 0 0 1 0 0 0 0 1 0 0 0 0 1 0 0 0 1 0"/>
<feBlend mode="normal" in2="BackgroundImageFix" result="effect1_dropShadow_915_9933"/>
<feColorMatrix in="SourceAlpha" type="matrix" values="0 0 0 0 0 0 0 0 0 0 0 0 0 0 0 0 0 0 127 0" result="hardAlpha"/>
<feOffset/>
<feGaussianBlur stdDeviation="0.208393"/>
<feColorMatrix type="matrix" values="0 0 0 0 1 0 0 0 0 1 0 0 0 0 1 0 0 0 1 0"/>
<feBlend mode="normal" in2="effect1_dropShadow_915_9933" result="effect2_dropShadow_915_9933"/>
<feColorMatrix in="SourceAlpha" type="matrix" values="0 0 0 0 0 0 0 0 0 0 0 0 0 0 0 0 0 0 127 0" result="hardAlpha"/>
<feOffset/>
<feGaussianBlur stdDeviation="0.729376"/>
<feColorMatrix type="matrix" values="0 0 0 0 1 0 0 0 0 1 0 0 0 0 1 0 0 0 1 0"/>
<feBlend mode="normal" in2="effect2_dropShadow_915_9933" result="effect3_dropShadow_915_9933"/>
<feColorMatrix in="SourceAlpha" type="matrix" values="0 0 0 0 0 0 0 0 0 0 0 0 0 0 0 0 0 0 127 0" result="hardAlpha"/>
<feOffset/>
<feGaussianBlur stdDeviation="1.45875"/>
<feColorMatrix type="matrix" values="0 0 0 0 0.941176 0 0 0 0 0.737255 0 0 0 0 0.737255 0 0 0 1 0"/>
<feBlend mode="normal" in2="effect3_dropShadow_915_9933" result="effect4_dropShadow_915_9933"/>
<feColorMatrix in="SourceAlpha" type="matrix" values="0 0 0 0 0 0 0 0 0 0 0 0 0 0 0 0 0 0 127 0" result="hardAlpha"/>
<feOffset/>
<feGaussianBlur stdDeviation="2.50072"/>
<feColorMatrix type="matrix" values="0 0 0 0 0.941176 0 0 0 0 0.737255 0 0 0 0 0.737255 0 0 0 1 0"/>
<feBlend mode="normal" in2="effect4_dropShadow_915_9933" result="effect5_dropShadow_915_9933"/>
<feColorMatrix in="SourceAlpha" type="matrix" values="0 0 0 0 0 0 0 0 0 0 0 0 0 0 0 0 0 0 127 0" result="hardAlpha"/>
<feOffset/>
<feGaussianBlur stdDeviation="4.37626"/>
<feColorMatrix type="matrix" values="0 0 0 0 0.941176 0 0 0 0 0.737255 0 0 0 0 0.737255 0 0 0 1 0"/>
<feBlend mode="normal" in2="effect5_dropShadow_915_9933" result="effect6_dropShadow_915_9933"/>
<feBlend mode="normal" in="SourceGraphic" in2="effect6_dropShadow_915_9933" result="shape"/>
</filter>
</defs>
</svg>
