<svg width="105" height="104" viewBox="0 0 105 104" fill="none" xmlns="http://www.w3.org/2000/svg">
<rect x="0.5" width="104" height="104" rx="42" fill="#FBCF7A"/>
<path d="M82.132 58.9504C81.1035 57.3979 79.945 55.9334 78.9598 54.3147C77.8663 52.5309 76.8486 50.692 75.9066 48.8201L52.5209 42.6758L29.1352 48.8201C28.1283 50.8241 27.0348 52.7841 25.8547 54.6891C23.4403 58.5761 20.6579 61.9125 19.9433 66.5923C19.6185 68.6844 19.6834 70.8536 20.3222 72.8797C22.336 79.2883 29.1893 82.1732 35.1007 83.5827C41.0121 84.9921 46.6961 85.2784 52.5209 85.2784C61.6587 85.2784 73.5572 84.9701 80.9302 78.5285C85.5532 74.4874 86.192 68.3541 84.1241 62.7383C83.6153 61.3619 82.9115 60.1397 82.132 58.9615V58.9504Z" fill="#FFEDD9"/>
<circle cx="40.3788" cy="60.7387" r="3.14299" fill="#BCBCBC"/>
<circle cx="65.0478" cy="60.7387" r="3.14299" fill="#BCBCBC"/>
<path d="M57.605 61.8662C58.0793 61.7072 58.5919 61.9497 58.7729 62.4102L58.7896 62.4561C58.9151 62.8304 59.038 63.308 59.0649 63.7969C59.091 64.2704 59.0339 64.8842 58.6577 65.4033C58.2481 65.9684 57.6015 66.233 56.853 66.251C56.136 66.2681 55.2614 66.0656 54.2036 65.6504C53.9823 65.5637 53.4049 65.2836 52.8511 64.7559C52.2973 65.2834 51.7207 65.5647 51.4995 65.6514V65.6504C50.4418 66.0655 49.5671 66.2681 48.8501 66.251C48.1017 66.233 47.4551 65.9683 47.0454 65.4033C46.6692 64.8842 46.6121 64.2704 46.6382 63.7969C46.6651 63.308 46.788 62.8304 46.9136 62.4561L46.9302 62.4102C47.1112 61.9497 47.6238 61.7071 48.0981 61.8662C48.5879 62.0306 48.8513 62.5611 48.687 63.0508L48.6528 63.1582C48.575 63.4102 48.519 63.6706 48.5063 63.8994C48.4912 64.1752 48.5448 64.2834 48.5601 64.3047C48.5618 64.3072 48.5672 64.3163 48.5972 64.3301C48.6338 64.3468 48.7226 64.3767 48.894 64.3809C49.2532 64.3895 49.8609 64.2844 50.8169 63.9092L50.896 63.874C51.1179 63.7641 51.6448 63.4433 51.9565 62.9102L52.0151 62.8008C52.0557 62.7196 52.107 62.6433 52.1704 62.5762C52.1739 62.5725 52.1776 62.569 52.1812 62.5654C52.2203 62.5253 52.2641 62.4892 52.311 62.4561C52.3158 62.4527 52.3199 62.4486 52.3247 62.4453C52.3405 62.4346 52.357 62.4249 52.3735 62.415C52.3848 62.4083 52.3962 62.4017 52.4077 62.3955C52.4158 62.3912 52.4239 62.3869 52.4321 62.3828C52.4433 62.3772 52.4551 62.3723 52.4663 62.3672C52.4708 62.3651 52.4754 62.3633 52.48 62.3613C52.5001 62.3526 52.5201 62.3441 52.5405 62.3369C52.555 62.3318 52.5698 62.3276 52.5845 62.3232C52.6001 62.3186 52.6157 62.3144 52.6313 62.3105C52.6421 62.3079 52.6527 62.305 52.6636 62.3027C52.6802 62.2993 52.6967 62.2964 52.7134 62.2939C52.7283 62.2917 52.7433 62.2896 52.7583 62.2881C52.7759 62.2863 52.7935 62.2849 52.811 62.2842C52.8551 62.2822 52.8995 62.2837 52.9438 62.2881C52.9582 62.2895 52.9725 62.2918 52.9868 62.2939C53.0048 62.2966 53.0226 62.3 53.0405 62.3037C53.0507 62.3058 53.0607 62.3081 53.0708 62.3105C53.0865 62.3143 53.1021 62.3186 53.1177 62.3232C53.1324 62.3276 53.1471 62.3318 53.1616 62.3369C53.182 62.3441 53.202 62.3526 53.2222 62.3613C53.2267 62.3633 53.2313 62.3651 53.2358 62.3672C53.2473 62.3724 53.2596 62.3771 53.271 62.3828C53.279 62.3868 53.2866 62.3913 53.2944 62.3955C53.306 62.4017 53.3173 62.4083 53.3286 62.415C53.3452 62.4249 53.3617 62.4346 53.3774 62.4453C53.3824 62.4487 53.3871 62.4526 53.3921 62.4561C53.4381 62.4885 53.4805 62.5243 53.519 62.5635C53.5255 62.57 53.5313 62.5772 53.5376 62.584C53.5523 62.5998 53.5661 62.6161 53.5796 62.6328C53.5835 62.6377 53.5875 62.6425 53.5913 62.6475C53.6328 62.7011 53.6681 62.7586 53.6968 62.8193C53.999 63.407 54.5729 63.758 54.8071 63.874L54.8853 63.9092H54.8862C55.8419 64.2843 56.4489 64.3894 56.8081 64.3809C56.9795 64.3767 57.0682 64.3468 57.105 64.3301C57.1351 64.3163 57.1403 64.3073 57.1421 64.3047C57.157 64.2841 57.212 64.1766 57.1968 63.8994C57.1841 63.6706 57.1281 63.4102 57.0503 63.1582L57.0151 63.0508C56.8509 62.5611 57.1153 62.0306 57.605 61.8662Z" fill="#BCBCBC"/>
<circle cx="40.3803" cy="60.7382" r="3.14299" fill="#3D220A"/>
<circle cx="65.0483" cy="60.7382" r="3.14299" fill="#3D220A"/>
<path d="M57.604 61.8667C58.0784 61.7075 58.5909 61.9502 58.772 62.4106L58.7886 62.4565C58.9142 62.8309 59.037 63.3084 59.064 63.7974C59.09 64.2709 59.033 64.8847 58.6567 65.4038C58.2471 65.9687 57.6013 66.2334 56.853 66.2515C56.136 66.2687 55.2614 66.066 54.2036 65.6509C53.9824 65.5642 53.4049 65.284 52.8511 64.7563C52.2973 65.284 51.7198 65.5642 51.4985 65.6509C50.4407 66.066 49.5661 66.2687 48.8491 66.2515C48.1008 66.2334 47.4551 65.9687 47.0454 65.4038C46.6692 64.8848 46.6112 64.2709 46.6372 63.7974C46.6641 63.3084 46.788 62.8309 46.9136 62.4565L46.9302 62.4106C47.1113 61.9503 47.6238 61.7075 48.0981 61.8667C48.5877 62.0312 48.8513 62.5616 48.687 63.0513L48.6519 63.1587C48.5741 63.4107 48.518 63.6711 48.5054 63.8999C48.4901 64.1766 48.545 64.2844 48.5601 64.3052C48.5619 64.3077 48.5669 64.3167 48.5972 64.3306C48.6338 64.3473 48.7224 64.3772 48.894 64.3813C49.2532 64.39 49.8601 64.2848 50.8159 63.9097H50.8169L50.895 63.8745C51.1169 63.7646 51.6438 63.4437 51.9556 62.9106L52.0151 62.8013C52.0941 62.6432 52.2172 62.506 52.3794 62.4116C52.3883 62.4064 52.3976 62.4019 52.4067 62.397C52.4152 62.3924 52.4235 62.3876 52.4321 62.3833C52.4408 62.379 52.4498 62.3756 52.4585 62.3716C52.468 62.3672 52.4772 62.362 52.4868 62.3579C52.5046 62.3504 52.5225 62.3437 52.5405 62.3374C52.5541 62.3326 52.5677 62.3279 52.5815 62.3237C52.5977 62.3189 52.6141 62.315 52.6304 62.311C52.642 62.3082 52.6538 62.3056 52.6655 62.3032C52.6815 62.3 52.6974 62.2968 52.7134 62.2944C52.7283 62.2922 52.7433 62.2901 52.7583 62.2886C52.7756 62.2869 52.7928 62.2854 52.8101 62.2847C52.8541 62.2827 52.8985 62.2842 52.9429 62.2886C52.9579 62.2901 52.9729 62.2922 52.9878 62.2944C53.0038 62.2968 53.0197 62.3 53.0356 62.3032C53.0474 62.3056 53.0591 62.3082 53.0708 62.311C53.0782 62.3128 53.0858 62.3139 53.0933 62.3159L53.146 62.3315C53.151 62.3332 53.1557 62.3357 53.1606 62.3374C53.1786 62.3437 53.1966 62.3504 53.2144 62.3579C53.2243 62.3621 53.2339 62.3671 53.2437 62.3716C53.2523 62.3756 53.2614 62.379 53.27 62.3833C53.2784 62.3875 53.2862 62.3926 53.2944 62.397C53.3035 62.4019 53.3128 62.4064 53.3218 62.4116C53.4843 62.506 53.6079 62.643 53.687 62.8013L53.7466 62.9106C54.0583 63.4437 54.5853 63.7646 54.8071 63.8745L54.8853 63.9097H54.8862C55.8421 64.2848 56.449 64.39 56.8081 64.3813C56.9798 64.3772 57.0683 64.3473 57.105 64.3306C57.1352 64.3167 57.1403 64.3077 57.1421 64.3052C57.1571 64.2843 57.212 64.1765 57.1968 63.8999C57.1841 63.6711 57.1281 63.4107 57.0503 63.1587L57.0151 63.0513C56.8509 62.5616 57.1144 62.0311 57.604 61.8667Z" fill="#3D220A"/>
<ellipse cx="33.3392" cy="64.8883" rx="2.95055" ry="1.84341" fill="#FFD2CB"/>
<ellipse cx="71.6639" cy="64.8883" rx="2.95055" ry="1.84341" fill="#FFD2CB"/>
<g clip-path="url(#clip0_7362_22897)">
<path d="M77.5791 45.4648C77.5791 41.0908 80.7947 37.4855 84.9846 36.8359C80.7947 32.1587 76.2041 27.828 71.029 24.5259C65.4749 20.9964 59.1521 18.7985 52.6993 18.7227C50.8155 18.7011 48.9208 18.9068 47.0478 19.2533C47.221 19.6214 47.1452 20.1627 47.0586 20.9206C46.7988 23.3349 45.6728 25.6085 44.157 27.4816C41.6561 30.5888 38.0724 33.5554 34.099 34.4215C30.6994 35.1685 27.4731 33.9993 25.167 31.4766C23.1315 33.4146 21.2044 35.4825 19.353 37.637C17.5341 39.7916 15.9967 41.5455 16.0725 44.6419C16.1375 47.1537 17.2851 49.6872 19.2231 51.0622C21.4859 52.6754 24.355 52.7187 27.0508 52.7187H78.023C79.0949 52.7187 80.1992 52.7078 81.2819 52.5888C79.0408 51.008 77.5791 48.4096 77.5791 45.4539V45.4648ZM43.8755 49.7846C40.3352 51.4519 36.1994 51.7984 32.4317 50.759C30.4504 50.2069 26.7044 48.3122 27.7437 45.638C27.8628 45.3348 28.0469 45.0425 28.3175 44.7502C30.0173 42.8988 32.7782 42.3358 35.1817 42.2167C37.4986 42.0977 39.8372 42.2925 42.1108 42.7797C43.7565 43.137 45.9218 44.198 46.5606 45.8762C47.2968 47.7817 45.4021 49.0701 43.8864 49.7738L43.8755 49.7846ZM71.9601 40.5603C70.0221 43.7758 65.0093 44.8693 61.6639 43.7758C58.7082 42.8014 56.0881 40.766 54.4749 38.1026C52.4828 34.8221 53.3381 30.7837 57.2141 29.5062C61.1983 28.1853 66.7632 29.9934 69.7622 32.765C70.8233 33.7502 71.8302 35.0711 72.3065 36.5002C72.7504 37.8211 72.7504 39.2394 71.9601 40.5494V40.5603Z" fill="#FFB129"/>
<path d="M34.0994 34.4329C38.0729 33.5559 41.6565 30.6002 44.1575 27.493C45.6624 25.6199 46.7992 23.3463 47.059 20.932C47.1457 20.1741 47.2106 19.6328 47.0482 19.2646C42.501 20.12 38.062 21.9822 34.0453 24.494C33.688 24.7105 33.3416 24.9379 33.0059 25.1652C30.2235 27.0166 27.6359 29.1603 25.1782 31.5097C27.4843 34.0323 30.7107 35.1908 34.1103 34.4545L34.0994 34.4329Z" fill="#FFE09E"/>
<path d="M69.7623 32.7767C66.7633 30.005 61.1984 28.197 57.2141 29.5178C53.349 30.7954 52.4937 34.8338 54.475 38.1143C56.0882 40.7776 58.7082 42.8131 61.6639 43.7875C65.0094 44.881 70.0222 43.7875 71.9601 40.5719C72.7505 39.2511 72.7505 37.8436 72.3066 36.5227C71.8194 35.0936 70.8233 33.7619 69.7623 32.7875V32.7767Z" fill="#FFE09E"/>
<path d="M88.6008 42.3369C88.276 41.2759 87.7455 40.3123 87.1175 39.4245C86.5437 38.6125 85.8941 37.8655 85.2445 37.1292C85.1579 37.0318 85.0605 36.9344 84.9738 36.8369C80.7839 37.4757 77.5684 41.0918 77.5684 45.4658C77.5684 48.4107 79.03 51.0199 81.2711 52.6006C82.9492 52.4274 84.5624 52.0052 85.9482 50.9766C88.3951 49.1361 89.5319 45.4442 88.59 42.3477L88.6008 42.3369Z" fill="#FFE09E"/>
<path d="M42.0898 42.7796C39.8162 42.2924 37.4884 42.0976 35.1607 42.2166C32.7571 42.3357 29.9963 42.8987 28.2965 44.7501C28.0258 45.0424 27.8418 45.3347 27.7227 45.6379C26.6942 48.3121 30.4294 50.2068 32.4107 50.7589C36.1784 51.7983 40.3142 51.4518 43.8545 49.7845C45.3703 49.07 47.2541 47.7924 46.5287 45.8869C45.8791 44.2088 43.7246 43.1477 42.0789 42.7905L42.0898 42.7796Z" fill="#FFE09E"/>
</g>
<defs>
<clipPath id="clip0_7362_22897">
<rect width="72.853" height="33.9959" fill="white" transform="translate(16.0732 18.7222)"/>
</clipPath>
</defs>
</svg>
