<svg width="24" height="25" viewBox="0 0 24 25" fill="none" xmlns="http://www.w3.org/2000/svg">
<mask id="mask0_3481_8740" style="mask-type:alpha" maskUnits="userSpaceOnUse" x="0" y="0" width="24" height="25">
<rect y="0.5" width="24" height="24" fill="#D9D9D9"/>
</mask>
<g mask="url(#mask0_3481_8740)">
<path d="M7 4.25H17C17.3057 4.25 17.5588 4.33836 17.7861 4.5293L17.8818 4.61816C18.134 4.8703 18.25 5.15049 18.25 5.5V18.4746C18.25 18.9379 18.0781 19.2566 17.6904 19.5098C17.3512 19.7312 17.0256 19.785 16.6553 19.6699L16.4932 19.6094L12.2959 17.8105L12 17.6836L11.7041 17.8105L7.50684 19.6094C7.12228 19.7728 6.79155 19.7672 6.45508 19.5938L6.30957 19.5098C5.92186 19.2566 5.75 18.9379 5.75 18.4746V5.5C5.75 5.19428 5.83836 4.9412 6.0293 4.71387L6.11816 4.61816C6.3703 4.36603 6.65049 4.25 7 4.25Z" stroke="#CFCFCF" stroke-width="1.5"/>
</g>
</svg>
